<mxfile host="app.diagrams.net" modified="2023-05-27T15:59:51.452Z" agent="Mozilla/5.0 (Windows NT 10.0; Win64; x64) AppleWebKit/537.36 (KHTML, like Gecko) Chrome/112.0.0.0 Safari/537.36 OPR/98.0.0.0" etag="U5QjiryJ9zqGYJ1OJa2e" version="21.3.4" type="github">
  <diagram name="Pagina-1" id="eDtDLzehLb0YDJNhWu8w">
    <mxGraphModel dx="3452" dy="1355" grid="1" gridSize="10" guides="1" tooltips="1" connect="1" arrows="1" fold="1" page="1" pageScale="1" pageWidth="827" pageHeight="1169" math="0" shadow="0">
      <root>
        <mxCell id="0" />
        <mxCell id="1" parent="0" />
        <mxCell id="HZx-hP21-zljbj6eYc8x-1" value="" style="rounded=0;whiteSpace=wrap;html=1;fillColor=none;" vertex="1" parent="1">
          <mxGeometry x="50" y="50" width="210" height="310" as="geometry" />
        </mxCell>
        <mxCell id="HZx-hP21-zljbj6eYc8x-2" value="Client/Attore" style="rounded=0;whiteSpace=wrap;html=1;fillColor=none;" vertex="1" parent="1">
          <mxGeometry x="50" y="20" width="120" height="30" as="geometry" />
        </mxCell>
        <mxCell id="HZx-hP21-zljbj6eYc8x-3" value="interfacciaRegistrazione" style="rounded=0;whiteSpace=wrap;html=1;fillColor=#fa6800;strokeColor=#C73500;fontColor=#FFFFFF;" vertex="1" parent="1">
          <mxGeometry x="80" y="60" width="160" height="40" as="geometry" />
        </mxCell>
        <mxCell id="HZx-hP21-zljbj6eYc8x-4" value="interfacciaLogin" style="rounded=0;whiteSpace=wrap;html=1;fillColor=#fa6800;strokeColor=#C73500;fontColor=#FFFFFF;" vertex="1" parent="1">
          <mxGeometry x="80" y="110" width="160" height="40" as="geometry" />
        </mxCell>
        <mxCell id="HZx-hP21-zljbj6eYc8x-5" value="interfacciaUtente" style="rounded=0;whiteSpace=wrap;html=1;fillColor=#fa6800;strokeColor=#C73500;fontColor=#FFFFFF;" vertex="1" parent="1">
          <mxGeometry x="80" y="160" width="160" height="40" as="geometry" />
        </mxCell>
        <mxCell id="HZx-hP21-zljbj6eYc8x-6" value="interfacciaProfessionista" style="rounded=0;whiteSpace=wrap;html=1;fillColor=#fa6800;strokeColor=#C73500;fontColor=#FFFFFF;" vertex="1" parent="1">
          <mxGeometry x="80" y="210" width="160" height="40" as="geometry" />
        </mxCell>
        <mxCell id="HZx-hP21-zljbj6eYc8x-7" value="interfacciaAssistenza" style="rounded=0;whiteSpace=wrap;html=1;fillColor=#fa6800;strokeColor=#C73500;fontColor=#FFFFFF;" vertex="1" parent="1">
          <mxGeometry x="80" y="260" width="160" height="40" as="geometry" />
        </mxCell>
        <mxCell id="HZx-hP21-zljbj6eYc8x-8" value="interfacciaAmministratore" style="rounded=0;whiteSpace=wrap;html=1;fillColor=#fa6800;strokeColor=#C73500;fontColor=#FFFFFF;" vertex="1" parent="1">
          <mxGeometry x="80" y="310" width="160" height="40" as="geometry" />
        </mxCell>
        <mxCell id="HZx-hP21-zljbj6eYc8x-9" value="" style="endArrow=open;startArrow=open;html=1;rounded=0;entryX=0.5;entryY=1;entryDx=0;entryDy=0;strokeColor=#3399FF;endFill=0;startFill=0;" edge="1" parent="1" target="HZx-hP21-zljbj6eYc8x-1">
          <mxGeometry width="50" height="50" relative="1" as="geometry">
            <mxPoint x="155" y="400" as="sourcePoint" />
            <mxPoint x="160" y="390" as="targetPoint" />
          </mxGeometry>
        </mxCell>
        <mxCell id="HZx-hP21-zljbj6eYc8x-10" value="Broker" style="rounded=0;whiteSpace=wrap;html=1;fillColor=none;" vertex="1" parent="1">
          <mxGeometry x="-375" y="400" width="1070" height="40" as="geometry" />
        </mxCell>
        <mxCell id="HZx-hP21-zljbj6eYc8x-11" value="ServerRegistrazione" style="rounded=0;whiteSpace=wrap;html=1;fillColor=none;" vertex="1" parent="1">
          <mxGeometry x="-380" y="480" width="120" height="40" as="geometry" />
        </mxCell>
        <mxCell id="HZx-hP21-zljbj6eYc8x-12" value="" style="rounded=0;whiteSpace=wrap;html=1;fillColor=none;" vertex="1" parent="1">
          <mxGeometry x="-380" y="520" width="240" height="120" as="geometry" />
        </mxCell>
        <mxCell id="HZx-hP21-zljbj6eYc8x-13" value="GestioneRegistrazione" style="rounded=0;whiteSpace=wrap;html=1;fillColor=#60a917;strokeColor=#2D7600;fontColor=#ffffff;" vertex="1" parent="1">
          <mxGeometry x="-340" y="540" width="160" height="40" as="geometry" />
        </mxCell>
        <mxCell id="HZx-hP21-zljbj6eYc8x-14" value="Dominio Registrazione" style="rounded=0;whiteSpace=wrap;html=1;fillColor=#0050ef;fontColor=#ffffff;strokeColor=#001DBC;" vertex="1" parent="1">
          <mxGeometry x="-340" y="590" width="160" height="40" as="geometry" />
        </mxCell>
        <mxCell id="HZx-hP21-zljbj6eYc8x-16" value="ServerLogin" style="rounded=0;whiteSpace=wrap;html=1;fillColor=none;" vertex="1" parent="1">
          <mxGeometry x="-110" y="480" width="120" height="40" as="geometry" />
        </mxCell>
        <mxCell id="HZx-hP21-zljbj6eYc8x-17" value="" style="rounded=0;whiteSpace=wrap;html=1;fillColor=none;" vertex="1" parent="1">
          <mxGeometry x="-110" y="520" width="240" height="120" as="geometry" />
        </mxCell>
        <mxCell id="HZx-hP21-zljbj6eYc8x-18" value="GestioneLogin" style="rounded=0;whiteSpace=wrap;html=1;fillColor=#60a917;strokeColor=#2D7600;fontColor=#ffffff;" vertex="1" parent="1">
          <mxGeometry x="-70" y="540" width="160" height="40" as="geometry" />
        </mxCell>
        <mxCell id="HZx-hP21-zljbj6eYc8x-19" value="Dominio Login" style="rounded=0;whiteSpace=wrap;html=1;fillColor=#0050ef;fontColor=#ffffff;strokeColor=#001DBC;" vertex="1" parent="1">
          <mxGeometry x="-70" y="590" width="160" height="40" as="geometry" />
        </mxCell>
        <mxCell id="HZx-hP21-zljbj6eYc8x-27" value="ServerUtente" style="rounded=0;whiteSpace=wrap;html=1;fillColor=none;" vertex="1" parent="1">
          <mxGeometry x="180" y="480" width="120" height="40" as="geometry" />
        </mxCell>
        <mxCell id="HZx-hP21-zljbj6eYc8x-28" value="" style="rounded=0;whiteSpace=wrap;html=1;fillColor=none;" vertex="1" parent="1">
          <mxGeometry x="180" y="520" width="240" height="120" as="geometry" />
        </mxCell>
        <mxCell id="HZx-hP21-zljbj6eYc8x-29" value="GestioneUtente" style="rounded=0;whiteSpace=wrap;html=1;fillColor=#60a917;strokeColor=#2D7600;fontColor=#ffffff;" vertex="1" parent="1">
          <mxGeometry x="220" y="540" width="160" height="40" as="geometry" />
        </mxCell>
        <mxCell id="HZx-hP21-zljbj6eYc8x-30" value="Dominio Utente" style="rounded=0;whiteSpace=wrap;html=1;fillColor=#0050ef;fontColor=#ffffff;strokeColor=#001DBC;" vertex="1" parent="1">
          <mxGeometry x="220" y="590" width="160" height="40" as="geometry" />
        </mxCell>
        <mxCell id="HZx-hP21-zljbj6eYc8x-31" value="ServerProfessionista" style="rounded=0;whiteSpace=wrap;html=1;fillColor=none;" vertex="1" parent="1">
          <mxGeometry x="455" y="480" width="120" height="40" as="geometry" />
        </mxCell>
        <mxCell id="HZx-hP21-zljbj6eYc8x-32" value="" style="rounded=0;whiteSpace=wrap;html=1;fillColor=none;" vertex="1" parent="1">
          <mxGeometry x="455" y="520" width="240" height="120" as="geometry" />
        </mxCell>
        <mxCell id="HZx-hP21-zljbj6eYc8x-33" value="GestioneProfessionista" style="rounded=0;whiteSpace=wrap;html=1;fillColor=#60a917;strokeColor=#2D7600;fontColor=#ffffff;" vertex="1" parent="1">
          <mxGeometry x="495" y="540" width="160" height="40" as="geometry" />
        </mxCell>
        <mxCell id="HZx-hP21-zljbj6eYc8x-34" value="Dominio Professionista" style="rounded=0;whiteSpace=wrap;html=1;fillColor=#0050ef;fontColor=#ffffff;strokeColor=#001DBC;" vertex="1" parent="1">
          <mxGeometry x="495" y="590" width="160" height="40" as="geometry" />
        </mxCell>
        <mxCell id="HZx-hP21-zljbj6eYc8x-35" value="ServerAssistenza" style="rounded=0;whiteSpace=wrap;html=1;fillColor=none;" vertex="1" parent="1">
          <mxGeometry x="-260" y="670" width="120" height="40" as="geometry" />
        </mxCell>
        <mxCell id="HZx-hP21-zljbj6eYc8x-36" value="" style="rounded=0;whiteSpace=wrap;html=1;fillColor=none;" vertex="1" parent="1">
          <mxGeometry x="-260" y="710" width="240" height="120" as="geometry" />
        </mxCell>
        <mxCell id="HZx-hP21-zljbj6eYc8x-37" value="GestioneAssistenza" style="rounded=0;whiteSpace=wrap;html=1;fillColor=#60a917;strokeColor=#2D7600;fontColor=#ffffff;" vertex="1" parent="1">
          <mxGeometry x="-220" y="730" width="160" height="40" as="geometry" />
        </mxCell>
        <mxCell id="HZx-hP21-zljbj6eYc8x-38" value="Dominio Assistenza" style="rounded=0;whiteSpace=wrap;html=1;fillColor=#0050ef;fontColor=#ffffff;strokeColor=#001DBC;" vertex="1" parent="1">
          <mxGeometry x="-220" y="780" width="160" height="40" as="geometry" />
        </mxCell>
        <mxCell id="HZx-hP21-zljbj6eYc8x-39" value="ServerAmministratore" style="rounded=0;whiteSpace=wrap;html=1;fillColor=none;" vertex="1" parent="1">
          <mxGeometry x="40" y="670" width="120" height="40" as="geometry" />
        </mxCell>
        <mxCell id="HZx-hP21-zljbj6eYc8x-40" value="" style="rounded=0;whiteSpace=wrap;html=1;fillColor=none;" vertex="1" parent="1">
          <mxGeometry x="40" y="710" width="240" height="120" as="geometry" />
        </mxCell>
        <mxCell id="HZx-hP21-zljbj6eYc8x-41" value="GestioneAmministratore" style="rounded=0;whiteSpace=wrap;html=1;fillColor=#60a917;strokeColor=#2D7600;fontColor=#ffffff;" vertex="1" parent="1">
          <mxGeometry x="80" y="730" width="160" height="40" as="geometry" />
        </mxCell>
        <mxCell id="HZx-hP21-zljbj6eYc8x-42" value="Dominio Amministratore" style="rounded=0;whiteSpace=wrap;html=1;fillColor=#0050ef;fontColor=#ffffff;strokeColor=#001DBC;" vertex="1" parent="1">
          <mxGeometry x="80" y="780" width="160" height="40" as="geometry" />
        </mxCell>
        <mxCell id="HZx-hP21-zljbj6eYc8x-43" value="ServerLog" style="rounded=0;whiteSpace=wrap;html=1;fillColor=none;" vertex="1" parent="1">
          <mxGeometry x="310" y="670" width="120" height="40" as="geometry" />
        </mxCell>
        <mxCell id="HZx-hP21-zljbj6eYc8x-44" value="" style="rounded=0;whiteSpace=wrap;html=1;fillColor=none;" vertex="1" parent="1">
          <mxGeometry x="310" y="710" width="240" height="120" as="geometry" />
        </mxCell>
        <mxCell id="HZx-hP21-zljbj6eYc8x-45" value="GestioneLog" style="rounded=0;whiteSpace=wrap;html=1;fillColor=#60a917;strokeColor=#2D7600;fontColor=#ffffff;" vertex="1" parent="1">
          <mxGeometry x="350" y="730" width="160" height="40" as="geometry" />
        </mxCell>
        <mxCell id="HZx-hP21-zljbj6eYc8x-46" value="Dominio Log" style="rounded=0;whiteSpace=wrap;html=1;fillColor=#0050ef;fontColor=#ffffff;strokeColor=#001DBC;" vertex="1" parent="1">
          <mxGeometry x="350" y="780" width="160" height="40" as="geometry" />
        </mxCell>
        <mxCell id="HZx-hP21-zljbj6eYc8x-47" value="Data Persistence" style="rounded=0;whiteSpace=wrap;html=1;fillColor=none;" vertex="1" parent="1">
          <mxGeometry x="-110" y="870" width="120" height="40" as="geometry" />
        </mxCell>
        <mxCell id="HZx-hP21-zljbj6eYc8x-48" value="" style="rounded=0;whiteSpace=wrap;html=1;fillColor=none;" vertex="1" parent="1">
          <mxGeometry x="-110" y="910" width="240" height="120" as="geometry" />
        </mxCell>
        <mxCell id="HZx-hP21-zljbj6eYc8x-51" value="Log Perstistence" style="rounded=0;whiteSpace=wrap;html=1;fillColor=none;" vertex="1" parent="1">
          <mxGeometry x="220" y="870" width="120" height="40" as="geometry" />
        </mxCell>
        <mxCell id="HZx-hP21-zljbj6eYc8x-52" value="" style="rounded=0;whiteSpace=wrap;html=1;fillColor=none;" vertex="1" parent="1">
          <mxGeometry x="220" y="910" width="240" height="120" as="geometry" />
        </mxCell>
        <mxCell id="HZx-hP21-zljbj6eYc8x-58" value="" style="endArrow=open;startArrow=open;html=1;rounded=0;strokeColor=#3399FF;endFill=0;startFill=0;exitX=0.75;exitY=0;exitDx=0;exitDy=0;entryX=0.164;entryY=1.024;entryDx=0;entryDy=0;entryPerimeter=0;" edge="1" parent="1">
          <mxGeometry width="50" height="50" relative="1" as="geometry">
            <mxPoint x="-201" y="520" as="sourcePoint" />
            <mxPoint x="-200.5200000000002" y="440.96000000000004" as="targetPoint" />
          </mxGeometry>
        </mxCell>
        <mxCell id="HZx-hP21-zljbj6eYc8x-59" value="" style="endArrow=open;startArrow=open;html=1;rounded=0;strokeColor=#3399FF;endFill=0;startFill=0;exitX=0.75;exitY=0;exitDx=0;exitDy=0;entryX=0.164;entryY=1.024;entryDx=0;entryDy=0;entryPerimeter=0;" edge="1" parent="1">
          <mxGeometry width="50" height="50" relative="1" as="geometry">
            <mxPoint x="59.389999999999986" y="520" as="sourcePoint" />
            <mxPoint x="59.389999999999986" y="441" as="targetPoint" />
          </mxGeometry>
        </mxCell>
        <mxCell id="HZx-hP21-zljbj6eYc8x-60" value="" style="endArrow=open;startArrow=open;html=1;rounded=0;strokeColor=#3399FF;endFill=0;startFill=0;exitX=0.75;exitY=0;exitDx=0;exitDy=0;entryX=0.164;entryY=1.024;entryDx=0;entryDy=0;entryPerimeter=0;" edge="1" parent="1">
          <mxGeometry width="50" height="50" relative="1" as="geometry">
            <mxPoint x="340" y="520" as="sourcePoint" />
            <mxPoint x="340" y="441" as="targetPoint" />
          </mxGeometry>
        </mxCell>
        <mxCell id="HZx-hP21-zljbj6eYc8x-61" value="" style="endArrow=open;startArrow=open;html=1;rounded=0;strokeColor=#3399FF;endFill=0;startFill=0;exitX=0.75;exitY=0;exitDx=0;exitDy=0;entryX=0.164;entryY=1.024;entryDx=0;entryDy=0;entryPerimeter=0;" edge="1" parent="1">
          <mxGeometry width="50" height="50" relative="1" as="geometry">
            <mxPoint x="610" y="520" as="sourcePoint" />
            <mxPoint x="610" y="441" as="targetPoint" />
          </mxGeometry>
        </mxCell>
        <mxCell id="HZx-hP21-zljbj6eYc8x-62" value="" style="endArrow=open;startArrow=open;html=1;rounded=0;strokeColor=#3399FF;endFill=0;startFill=0;entryX=0.237;entryY=1.042;entryDx=0;entryDy=0;entryPerimeter=0;" edge="1" parent="1" target="HZx-hP21-zljbj6eYc8x-10">
          <mxGeometry width="50" height="50" relative="1" as="geometry">
            <mxPoint x="-121" y="710" as="sourcePoint" />
            <mxPoint x="-160" y="481" as="targetPoint" />
          </mxGeometry>
        </mxCell>
        <mxCell id="HZx-hP21-zljbj6eYc8x-63" value="" style="endArrow=open;startArrow=open;html=1;rounded=0;strokeColor=#3399FF;endFill=0;startFill=0;exitX=0.54;exitY=0.002;exitDx=0;exitDy=0;exitPerimeter=0;" edge="1" parent="1">
          <mxGeometry width="50" height="50" relative="1" as="geometry">
            <mxPoint x="169.60000000000014" y="710.24" as="sourcePoint" />
            <mxPoint x="170" y="440" as="targetPoint" />
          </mxGeometry>
        </mxCell>
        <mxCell id="HZx-hP21-zljbj6eYc8x-64" value="" style="endArrow=open;startArrow=open;html=1;rounded=0;strokeColor=#3399FF;endFill=0;startFill=0;entryX=0.164;entryY=1.024;entryDx=0;entryDy=0;entryPerimeter=0;" edge="1" parent="1">
          <mxGeometry width="50" height="50" relative="1" as="geometry">
            <mxPoint x="440" y="710" as="sourcePoint" />
            <mxPoint x="439" y="440" as="targetPoint" />
          </mxGeometry>
        </mxCell>
        <mxCell id="HZx-hP21-zljbj6eYc8x-65" value="" style="endArrow=open;startArrow=open;html=1;rounded=0;strokeColor=#3399FF;endFill=0;startFill=0;entryX=0.164;entryY=1.024;entryDx=0;entryDy=0;entryPerimeter=0;exitX=1;exitY=0.5;exitDx=0;exitDy=0;" edge="1" parent="1" source="HZx-hP21-zljbj6eYc8x-52">
          <mxGeometry width="50" height="50" relative="1" as="geometry">
            <mxPoint x="641" y="910" as="sourcePoint" />
            <mxPoint x="640" y="640" as="targetPoint" />
            <Array as="points">
              <mxPoint x="640" y="970" />
            </Array>
          </mxGeometry>
        </mxCell>
        <mxCell id="HZx-hP21-zljbj6eYc8x-66" value="" style="endArrow=open;startArrow=open;html=1;rounded=0;strokeColor=#3399FF;endFill=0;startFill=0;exitX=0.75;exitY=0;exitDx=0;exitDy=0;entryX=0.164;entryY=1.024;entryDx=0;entryDy=0;entryPerimeter=0;" edge="1" parent="1">
          <mxGeometry width="50" height="50" relative="1" as="geometry">
            <mxPoint x="440" y="909" as="sourcePoint" />
            <mxPoint x="440" y="830" as="targetPoint" />
          </mxGeometry>
        </mxCell>
        <mxCell id="HZx-hP21-zljbj6eYc8x-67" value="" style="endArrow=open;startArrow=open;html=1;rounded=0;strokeColor=#3399FF;endFill=0;startFill=0;exitX=0;exitY=0.5;exitDx=0;exitDy=0;entryX=0.164;entryY=1.024;entryDx=0;entryDy=0;entryPerimeter=0;" edge="1" parent="1" source="HZx-hP21-zljbj6eYc8x-52">
          <mxGeometry width="50" height="50" relative="1" as="geometry">
            <mxPoint x="178.46" y="910" as="sourcePoint" />
            <mxPoint x="178.46" y="831" as="targetPoint" />
            <Array as="points">
              <mxPoint x="178" y="970" />
            </Array>
          </mxGeometry>
        </mxCell>
        <mxCell id="HZx-hP21-zljbj6eYc8x-68" value="" style="endArrow=open;startArrow=open;html=1;rounded=0;strokeColor=#3399FF;endFill=0;startFill=0;" edge="1" parent="1">
          <mxGeometry width="50" height="50" relative="1" as="geometry">
            <mxPoint x="290" y="870" as="sourcePoint" />
            <mxPoint x="290.4" y="640" as="targetPoint" />
          </mxGeometry>
        </mxCell>
        <mxCell id="HZx-hP21-zljbj6eYc8x-69" value="" style="endArrow=open;startArrow=open;html=1;rounded=0;strokeColor=#3399FF;endFill=0;startFill=0;exitX=0.5;exitY=1;exitDx=0;exitDy=0;entryX=0.078;entryY=0.994;entryDx=0;entryDy=0;entryPerimeter=0;" edge="1" parent="1" source="HZx-hP21-zljbj6eYc8x-52" target="HZx-hP21-zljbj6eYc8x-12">
          <mxGeometry width="50" height="50" relative="1" as="geometry">
            <mxPoint x="-360" y="904" as="sourcePoint" />
            <mxPoint x="-360" y="650" as="targetPoint" />
            <Array as="points">
              <mxPoint x="340" y="1080" />
              <mxPoint x="-360" y="1080" />
            </Array>
          </mxGeometry>
        </mxCell>
        <mxCell id="HZx-hP21-zljbj6eYc8x-70" value="" style="endArrow=open;startArrow=open;html=1;rounded=0;strokeColor=#3399FF;endFill=0;startFill=0;exitX=0;exitY=0.25;exitDx=0;exitDy=0;jumpStyle=arc;" edge="1" parent="1">
          <mxGeometry width="50" height="50" relative="1" as="geometry">
            <mxPoint x="228" y="940" as="sourcePoint" />
            <mxPoint x="28" y="640" as="targetPoint" />
            <Array as="points">
              <mxPoint x="158" y="940" />
              <mxPoint x="158" y="860" />
              <mxPoint x="28" y="860" />
            </Array>
          </mxGeometry>
        </mxCell>
        <mxCell id="HZx-hP21-zljbj6eYc8x-71" value="" style="endArrow=open;startArrow=open;html=1;rounded=0;strokeColor=#3399FF;endFill=0;startFill=0;entryX=0.237;entryY=1.042;entryDx=0;entryDy=0;entryPerimeter=0;exitX=0.25;exitY=1;exitDx=0;exitDy=0;" edge="1" parent="1" source="HZx-hP21-zljbj6eYc8x-52">
          <mxGeometry width="50" height="50" relative="1" as="geometry">
            <mxPoint x="540" y="1224" as="sourcePoint" />
            <mxPoint x="-160" y="830" as="targetPoint" />
            <Array as="points">
              <mxPoint x="280" y="1060" />
              <mxPoint x="-160" y="1060" />
            </Array>
          </mxGeometry>
        </mxCell>
        <mxCell id="HZx-hP21-zljbj6eYc8x-72" value="" style="endArrow=open;startArrow=open;html=1;rounded=0;strokeColor=#3399FF;endFill=0;startFill=0;exitX=0.75;exitY=0;exitDx=0;exitDy=0;entryX=0.164;entryY=1.024;entryDx=0;entryDy=0;entryPerimeter=0;jumpStyle=arc;" edge="1" parent="1">
          <mxGeometry width="50" height="50" relative="1" as="geometry">
            <mxPoint x="89.12999999999998" y="909" as="sourcePoint" />
            <mxPoint x="89.12999999999998" y="830" as="targetPoint" />
          </mxGeometry>
        </mxCell>
        <mxCell id="HZx-hP21-zljbj6eYc8x-74" value="" style="endArrow=open;startArrow=open;html=1;rounded=0;strokeColor=#3399FF;endFill=0;startFill=0;entryX=0.164;entryY=1.024;entryDx=0;entryDy=0;entryPerimeter=0;" edge="1" parent="1">
          <mxGeometry width="50" height="50" relative="1" as="geometry">
            <mxPoint x="-9" y="870" as="sourcePoint" />
            <mxPoint x="-10.000000000000014" y="640" as="targetPoint" />
          </mxGeometry>
        </mxCell>
        <mxCell id="HZx-hP21-zljbj6eYc8x-75" value="" style="endArrow=open;startArrow=open;html=1;rounded=0;strokeColor=#3399FF;endFill=0;startFill=0;exitX=0;exitY=0.25;exitDx=0;exitDy=0;entryX=0.164;entryY=1.024;entryDx=0;entryDy=0;entryPerimeter=0;jumpStyle=arc;" edge="1" parent="1" source="HZx-hP21-zljbj6eYc8x-48">
          <mxGeometry width="50" height="50" relative="1" as="geometry">
            <mxPoint x="-310" y="719" as="sourcePoint" />
            <mxPoint x="-310" y="640" as="targetPoint" />
            <Array as="points">
              <mxPoint x="-310" y="940" />
            </Array>
          </mxGeometry>
        </mxCell>
        <mxCell id="HZx-hP21-zljbj6eYc8x-76" value="" style="endArrow=open;startArrow=open;html=1;rounded=0;strokeColor=#3399FF;endFill=0;startFill=0;entryX=0.164;entryY=1.024;entryDx=0;entryDy=0;entryPerimeter=0;jumpStyle=arc;" edge="1" parent="1">
          <mxGeometry width="50" height="50" relative="1" as="geometry">
            <mxPoint x="-1" y="1030" as="sourcePoint" />
            <mxPoint x="674" y="640" as="targetPoint" />
            <Array as="points">
              <mxPoint x="-1" y="1120" />
              <mxPoint x="674" y="1120" />
            </Array>
          </mxGeometry>
        </mxCell>
        <mxCell id="HZx-hP21-zljbj6eYc8x-77" value="" style="endArrow=open;startArrow=open;html=1;rounded=0;strokeColor=#3399FF;endFill=0;startFill=0;exitX=0.75;exitY=1;exitDx=0;exitDy=0;jumpStyle=arc;entryX=0.876;entryY=1.006;entryDx=0;entryDy=0;entryPerimeter=0;" edge="1" parent="1" source="HZx-hP21-zljbj6eYc8x-48" target="HZx-hP21-zljbj6eYc8x-44">
          <mxGeometry width="50" height="50" relative="1" as="geometry">
            <mxPoint x="600" y="719" as="sourcePoint" />
            <mxPoint x="520" y="840" as="targetPoint" />
            <Array as="points">
              <mxPoint x="70" y="1100" />
              <mxPoint x="520" y="1100" />
            </Array>
          </mxGeometry>
        </mxCell>
        <mxCell id="HZx-hP21-zljbj6eYc8x-78" value="" style="endArrow=open;startArrow=open;html=1;rounded=0;strokeColor=#3399FF;endFill=0;startFill=0;exitX=1;exitY=0;exitDx=0;exitDy=0;entryX=0.25;entryY=1;entryDx=0;entryDy=0;jumpStyle=arc;" edge="1" parent="1" source="HZx-hP21-zljbj6eYc8x-47" target="HZx-hP21-zljbj6eYc8x-28">
          <mxGeometry width="50" height="50" relative="1" as="geometry">
            <mxPoint x="9.29000000000002" y="770" as="sourcePoint" />
            <mxPoint x="9" y="660" as="targetPoint" />
            <Array as="points">
              <mxPoint x="10" y="660" />
              <mxPoint x="240" y="660" />
            </Array>
          </mxGeometry>
        </mxCell>
      </root>
    </mxGraphModel>
  </diagram>
</mxfile>
